<mxfile host="app.diagrams.net" modified="2023-11-12T11:03:48.155Z" agent="Mozilla/5.0 (X11; Linux x86_64) AppleWebKit/537.36 (KHTML, like Gecko) Chrome/119.0.0.0 Safari/537.36" etag="Auyj-SseDX606NJeq-Dp" version="22.1.0" type="device">
  <diagram name="Page-1" id="RmBklCHae2-FvZ7o6U05">
    <mxGraphModel dx="1080" dy="612" grid="1" gridSize="10" guides="1" tooltips="1" connect="1" arrows="1" fold="1" page="1" pageScale="1" pageWidth="850" pageHeight="1100" math="0" shadow="0">
      <root>
        <mxCell id="0" />
        <mxCell id="1" parent="0" />
        <mxCell id="pGwd2pVJrnU2UcQLpUV1-1" value="interface" style="rounded=1;whiteSpace=wrap;html=1;" vertex="1" parent="1">
          <mxGeometry x="360" y="40" width="200" height="40" as="geometry" />
        </mxCell>
        <mxCell id="pGwd2pVJrnU2UcQLpUV1-12" style="edgeStyle=orthogonalEdgeStyle;rounded=0;orthogonalLoop=1;jettySize=auto;html=1;entryX=0.329;entryY=1.007;entryDx=0;entryDy=0;entryPerimeter=0;" edge="1" parent="1" source="pGwd2pVJrnU2UcQLpUV1-2" target="pGwd2pVJrnU2UcQLpUV1-1">
          <mxGeometry relative="1" as="geometry" />
        </mxCell>
        <mxCell id="pGwd2pVJrnU2UcQLpUV1-15" style="edgeStyle=orthogonalEdgeStyle;rounded=0;orthogonalLoop=1;jettySize=auto;html=1;entryX=0.5;entryY=1;entryDx=0;entryDy=0;" edge="1" parent="1" source="pGwd2pVJrnU2UcQLpUV1-2" target="pGwd2pVJrnU2UcQLpUV1-3">
          <mxGeometry relative="1" as="geometry" />
        </mxCell>
        <mxCell id="pGwd2pVJrnU2UcQLpUV1-2" value="database" style="rounded=1;whiteSpace=wrap;html=1;" vertex="1" parent="1">
          <mxGeometry x="200" y="200" width="120" height="40" as="geometry" />
        </mxCell>
        <mxCell id="pGwd2pVJrnU2UcQLpUV1-11" style="edgeStyle=orthogonalEdgeStyle;rounded=0;orthogonalLoop=1;jettySize=auto;html=1;entryX=0.17;entryY=1.007;entryDx=0;entryDy=0;entryPerimeter=0;" edge="1" parent="1" source="pGwd2pVJrnU2UcQLpUV1-3" target="pGwd2pVJrnU2UcQLpUV1-1">
          <mxGeometry relative="1" as="geometry" />
        </mxCell>
        <mxCell id="pGwd2pVJrnU2UcQLpUV1-3" value="table" style="rounded=1;whiteSpace=wrap;html=1;" vertex="1" parent="1">
          <mxGeometry x="200" y="120" width="120" height="40" as="geometry" />
        </mxCell>
        <mxCell id="pGwd2pVJrnU2UcQLpUV1-13" style="edgeStyle=orthogonalEdgeStyle;rounded=0;orthogonalLoop=1;jettySize=auto;html=1;entryX=0.5;entryY=1;entryDx=0;entryDy=0;" edge="1" parent="1" source="pGwd2pVJrnU2UcQLpUV1-4" target="pGwd2pVJrnU2UcQLpUV1-1">
          <mxGeometry relative="1" as="geometry" />
        </mxCell>
        <mxCell id="pGwd2pVJrnU2UcQLpUV1-14" style="edgeStyle=orthogonalEdgeStyle;rounded=0;orthogonalLoop=1;jettySize=auto;html=1;entryX=0.5;entryY=1;entryDx=0;entryDy=0;" edge="1" parent="1" source="pGwd2pVJrnU2UcQLpUV1-4" target="pGwd2pVJrnU2UcQLpUV1-2">
          <mxGeometry relative="1" as="geometry" />
        </mxCell>
        <mxCell id="pGwd2pVJrnU2UcQLpUV1-4" value="db-manager" style="rounded=1;whiteSpace=wrap;html=1;" vertex="1" parent="1">
          <mxGeometry x="200" y="280" width="120" height="40" as="geometry" />
        </mxCell>
        <mxCell id="pGwd2pVJrnU2UcQLpUV1-17" style="edgeStyle=orthogonalEdgeStyle;rounded=0;orthogonalLoop=1;jettySize=auto;html=1;" edge="1" parent="1" source="pGwd2pVJrnU2UcQLpUV1-16" target="pGwd2pVJrnU2UcQLpUV1-4">
          <mxGeometry relative="1" as="geometry" />
        </mxCell>
        <mxCell id="pGwd2pVJrnU2UcQLpUV1-18" style="edgeStyle=orthogonalEdgeStyle;rounded=0;orthogonalLoop=1;jettySize=auto;html=1;entryX=0.651;entryY=1.005;entryDx=0;entryDy=0;entryPerimeter=0;" edge="1" parent="1" source="pGwd2pVJrnU2UcQLpUV1-16" target="pGwd2pVJrnU2UcQLpUV1-1">
          <mxGeometry relative="1" as="geometry">
            <mxPoint x="500" y="80" as="targetPoint" />
          </mxGeometry>
        </mxCell>
        <mxCell id="pGwd2pVJrnU2UcQLpUV1-16" value="filestream" style="rounded=1;whiteSpace=wrap;html=1;" vertex="1" parent="1">
          <mxGeometry x="200" y="360" width="120" height="40" as="geometry" />
        </mxCell>
        <mxCell id="pGwd2pVJrnU2UcQLpUV1-20" value="" style="edgeStyle=orthogonalEdgeStyle;rounded=0;orthogonalLoop=1;jettySize=auto;html=1;" edge="1" parent="1" source="pGwd2pVJrnU2UcQLpUV1-19" target="pGwd2pVJrnU2UcQLpUV1-16">
          <mxGeometry relative="1" as="geometry" />
        </mxCell>
        <mxCell id="pGwd2pVJrnU2UcQLpUV1-19" value="db-stream | api" style="rounded=1;whiteSpace=wrap;html=1;" vertex="1" parent="1">
          <mxGeometry x="200" y="440" width="120" height="40" as="geometry" />
        </mxCell>
        <mxCell id="pGwd2pVJrnU2UcQLpUV1-21" style="edgeStyle=orthogonalEdgeStyle;rounded=0;orthogonalLoop=1;jettySize=auto;html=1;entryX=0.8;entryY=1;entryDx=0;entryDy=0;entryPerimeter=0;" edge="1" parent="1" source="pGwd2pVJrnU2UcQLpUV1-19" target="pGwd2pVJrnU2UcQLpUV1-1">
          <mxGeometry relative="1" as="geometry" />
        </mxCell>
      </root>
    </mxGraphModel>
  </diagram>
</mxfile>
